# xmcd
#
# Track frame offsets: 
#        150
#        12155
#        25275
#        37662
#        52360
#        64370
#        77480
#        89912
#        103500
#        114492
#        128575
#        155530
#        168345
#        193570
#        204725
#        235927
#        249985
#        261097
#        278772
#        287550
#        303925
#        327987
#
# Disc length: 4527 seconds
#
# Revision: 5
# Processed by: cddbd v1.5.2PL0 Copyright (c) Steve Scherf et al.
# Submitted via: ExactAudioCopyFreeDBPlugin 1.0
#
DISCID=3011ad16
DTITLE=Various Artist - Martin Scorsese Presents The Blues:  Godfathe
DTITLE=rs and Sons (A Film By Marc Levin)
DYEAR=2003
DGENRE=Blues
TTITLE0=Jimmy Rogers - Chicago Bound
TTITLE1=Muddy Waters - Mannish Boy
TTITLE2=Howlin' Wolf - Spoonful
TTITLE3=Buddy Guy - I Cry And Sing The Blues
TTITLE4=Jimmy Reed - Bright Lights, Big City
TTITLE5=Howlin' Wolf - Evil (Is Going On)
TTITLE6=Little Walter - Key To The Highway
TTITLE7=Koko Taylor - Wang Dang Doodle
TTITLE8=Howlin' Wolf - The Red Rooster
TTITLE9=Koko Taylor - I Got What It Takes
TTITLE10=Otis Rush - Walking The Backstreets and Crying (Live)
TTITLE11=Muddy Waters - (I'm Your) Hoochie Coochie Man
TTITLE12=Lonnie Brooks - Feel Good Doin' Bad (Live)
TTITLE13=Bo Diddley - Diddley Daddy
TTITLE14=Magic Slim - Talk To Me Baby (I Can't Hold Out) (Live)
TTITLE15=The Paul Butterfield Blues Band - Born In Chicago
TTITLE16=The Paul Butterfield Blues Band - Shake Your Money Maker
TTITLE17=Bob Dylan - Maggie's Farm
TTITLE18=Public Enemy - Show 'Em Whatcha Got
TTITLE19=Common - Dooinit
TTITLE20=The Electrik Mud Kats - Mannish Boy
TTITLE21=Etta James - I'd Rather Go Blind
EXTD=Martin Scorsese Presents The Blues\nGodfathers and Sons\nA Film b
EXTD=y Mark Levin\n(The story of Chess Records) ID3G:   0 YEAR: 2003
EXTT0=
EXTT1=
EXTT2=
EXTT3=
EXTT4=
EXTT5=
EXTT6=
EXTT7=
EXTT8=
EXTT9=
EXTT10=
EXTT11=
EXTT12=
EXTT13=
EXTT14=
EXTT15=
EXTT16=
EXTT17=
EXTT18=
EXTT19=
EXTT20=
EXTT21=
PLAYORDER=
